<svg width="300" height="186" viewBox="0 0 300 186" xmlns="http://www.w3.org/2000/svg">
<g stroke-width="1" fill="none">
<polyline stroke="#ffffff" points="0,0 8,0 16,0 24,0 32,0 40,0 48,0 56,1 64,0 72,0 80,0 88,-8 96,-3 104,0 112,1 120,0 128,-10 136,-10 144,-3 152,0 160,0 168,-2 176,-8 184,-3 192,-2 200,0 208,0 216,0 224,1 232,0 240,0 248,-7 256,-11 264,-13 272,-6 280,0 288,0 296,0"/>
<polyline stroke="#f4f4f4" points="0,8 8,8 16,8 24,4 32,7 40,8 48,8 56,9 64,8 72,8 80,8 88,8 96,8 104,8 112,9 120,8 128,-3 136,3 144,8 152,8 160,8 168,7 176,6 184,7 192,8 200,8 208,8 216,9 224,9 232,9 240,8 248,-1 256,-5 264,-4 272,4 280,8 288,8 296,8"/>
<polyline stroke="#e9e9e9" points="0,17 8,16 16,14 24,7 32,13 40,11 48,14 56,16 64,17 72,17 80,16 88,16 96,16 104,16 112,17 120,16 128,11 136,16 144,16 152,17 160,16 168,16 176,16 184,16 192,16 200,17 208,16 216,17 224,18 232,17 240,16 248,11 256,2 264,10 272,16 280,17 288,17 296,17"/>
<polyline stroke="#dedede" points="0,25 8,24 16,19 24,11 32,16 40,18 48,18 56,24 64,25 72,25 80,24 88,21 96,23 104,24 112,24 120,21 128,20 136,24 144,24 152,25 160,25 168,24 176,25 184,24 192,25 200,25 208,25 216,25 224,25 232,25 240,24 248,24 256,18 264,24 272,25 280,25 288,25 296,25"/>
<polyline stroke="#d3d3d3" points="0,33 8,32 16,26 24,22 32,22 40,20 48,24 56,32 64,33 72,33 80,32 88,29 96,27 104,32 112,29 120,30 128,32 136,32 144,32 152,33 160,32 168,32 176,32 184,32 192,32 200,32 208,32 216,33 224,33 232,32 240,32 248,30 256,32 264,32 272,33 280,33 288,33 296,33"/>
<polyline stroke="#c8c8c8" points="0,41 8,40 16,35 24,32 32,26 40,26 48,28 56,40 64,41 72,41 80,40 88,38 96,35 104,40 112,36 120,40 128,40 136,40 144,40 152,41 160,40 168,40 176,40 184,32 192,40 200,40 208,40 216,41 224,40 232,40 240,40 248,38 256,39 264,40 272,41 280,41 288,41 296,41"/>
<polyline stroke="#bdbdbd" points="0,48 8,47 16,43 24,39 32,32 40,35 48,38 56,48 64,49 72,49 80,48 88,46 96,42 104,48 112,48 120,47 128,48 136,48 144,48 152,48 160,48 168,48 176,45 184,35 192,47 200,48 208,48 216,48 224,48 232,47 240,43 248,47 256,47 264,47 272,48 280,49 288,49 296,49"/>
<polyline stroke="#b2b2b2" points="0,56 8,49 16,48 24,45 32,42 40,42 48,51 56,56 64,57 72,57 80,56 88,52 96,55 104,54 112,56 120,56 128,56 136,56 144,57 152,56 160,50 168,51 176,48 184,41 192,50 200,56 208,56 216,56 224,52 232,51 240,51 248,52 256,56 264,53 272,56 280,56 288,56 296,57"/>
<polyline stroke="#a7a7a7" points="0,64 8,56 16,49 24,51 32,48 40,55 48,63 56,64 64,65 72,64 80,64 88,59 96,60 104,59 112,64 120,64 128,64 136,64 144,65 152,64 160,61 168,56 176,54 184,45 192,54 200,64 208,64 216,63 224,57 232,61 240,63 248,63 256,64 264,62 272,62 280,64 288,64 296,65"/>
<polyline stroke="#9c9c9c" points="0,72 8,61 16,58 24,55 32,58 40,68 48,72 56,72 64,73 72,72 80,72 88,67 96,64 104,67 112,71 120,72 128,72 136,73 144,73 152,72 160,71 168,67 176,64 184,55 192,62 200,72 208,73 216,72 224,67 232,69 240,72 248,72 256,72 264,71 272,71 280,72 288,68 296,73"/>
<polyline stroke="#919191" points="0,79 8,66 16,67 24,68 32,71 40,80 48,80 56,80 64,80 72,80 80,80 88,77 96,70 104,76 112,80 120,80 128,80 136,81 144,81 152,80 160,79 168,75 176,70 184,63 192,69 200,79 208,81 216,80 224,73 232,76 240,80 248,80 256,80 264,77 272,77 280,79 288,78 296,80"/>
<polyline stroke="#868686" points="0,82 8,70 16,74 24,82 32,85 40,88 48,89 56,88 64,88 72,86 80,86 88,85 96,78 104,85 112,88 120,87 128,88 136,89 144,89 152,88 160,88 168,85 176,75 184,68 192,74 200,87 208,88 216,88 224,83 232,84 240,84 248,88 256,88 264,79 272,80 280,87 288,82 296,88"/>
<polyline stroke="#7b7b7b" points="0,88 8,77 16,77 24,90 32,93 40,96 48,97 56,96 64,96 72,92 80,96 88,93 96,88 104,89 112,93 120,90 128,96 136,97 144,97 152,96 160,96 168,93 176,82 184,75 192,80 200,92 208,96 216,96 224,96 232,96 240,96 248,96 256,96 264,84 272,86 280,91 288,91 296,92"/>
<polyline stroke="#707070" points="0,94 8,86 16,82 24,94 32,101 40,104 48,104 56,104 64,104 72,97 80,97 88,102 96,98 104,94 112,98 120,101 128,104 136,105 144,105 152,104 160,103 168,91 176,88 184,90 192,98 200,104 208,104 216,104 224,105 232,104 240,104 248,103 256,104 264,95 272,92 280,97 288,97 296,96"/>
<polyline stroke="#656565" points="0,102 8,95 16,91 24,95 32,109 40,112 48,112 56,112 64,112 72,100 80,103 88,112 96,111 104,109 112,111 120,111 128,112 136,113 144,112 152,112 160,107 168,96 176,94 184,100 192,109 200,112 208,112 216,112 224,112 232,113 240,112 248,112 256,111 264,104 272,101 280,104 288,109 296,104"/>
<polyline stroke="#5a5a5a" points="0,113 8,104 16,102 24,105 32,112 40,119 48,120 56,120 64,113 72,110 80,113 88,120 96,119 104,120 112,120 120,120 128,120 136,121 144,120 152,120 160,113 168,104 176,102 184,109 192,117 200,120 208,120 216,120 224,120 232,121 240,120 248,120 256,120 264,116 272,112 280,113 288,115 296,112"/>
<polyline stroke="#4f4f4f" points="0,124 8,116 16,112 24,115 32,117 40,123 48,128 56,125 64,118 72,116 80,123 88,128 96,127 104,128 112,128 120,129 128,128 136,128 144,126 152,127 160,119 168,112 176,110 184,119 192,124 200,128 208,128 216,128 224,129 232,129 240,128 248,128 256,128 264,127 272,120 280,120 288,124 296,122"/>
<polyline stroke="#444444" points="0,133 8,126 16,121 24,127 32,128 40,129 48,134 56,129 64,129 72,125 80,132 88,136 96,136 104,136 112,136 120,137 128,136 136,136 144,130 152,132 160,132 168,123 176,121 184,129 192,128 200,134 208,135 216,136 224,136 232,137 240,136 248,134 256,136 264,136 272,131 280,129 288,135 296,133"/>
<polyline stroke="#393939" points="0,144 8,135 16,131 24,138 32,140 40,136 48,136 56,137 64,135 72,134 80,144 88,144 96,144 104,144 112,144 120,144 128,144 136,144 144,142 152,144 160,142 168,137 176,132 184,135 192,137 200,139 208,144 216,145 224,144 232,144 240,144 248,144 256,143 264,144 272,141 280,140 288,141 296,141"/>
<polyline stroke="#2e2e2e" points="0,152 8,140 16,138 24,145 32,147 40,146 48,146 56,150 64,143 72,147 80,152 88,152 96,152 104,152 112,151 120,152 128,152 136,152 144,150 152,152 160,149 168,148 176,143 184,142 192,143 200,149 208,152 216,153 224,153 232,152 240,152 248,148 256,151 264,152 272,151 280,152 288,147 296,149"/>
<polyline stroke="#232323" points="0,160 8,145 16,145 24,150 32,160 40,160 48,160 56,160 64,155 72,157 80,160 88,160 96,160 104,160 112,156 120,159 128,160 136,160 144,158 152,160 160,160 168,159 176,156 184,151 192,148 200,160 208,160 216,161 224,161 232,160 240,160 248,153 256,159 264,160 272,159 280,160 288,158 296,158"/>
<polyline stroke="#181818" points="0,166 8,151 16,150 24,158 32,168 40,168 48,168 56,169 64,168 72,167 80,167 88,168 96,168 104,168 112,164 120,164 128,164 136,165 144,167 152,168 160,168 168,168 176,168 184,160 192,157 200,168 208,168 216,169 224,169 232,168 240,167 248,162 256,166 264,168 272,168 280,168 288,168 296,166"/>
<polyline stroke="#0d0d0d" points="0,171 8,158 16,157 24,163 32,175 40,176 48,177 56,177 64,176 72,174 80,176 88,176 96,176 104,176 112,170 120,166 128,172 136,171 144,175 152,176 160,176 168,176 176,176 184,171 192,169 200,175 208,177 216,177 224,177 232,176 240,172 248,170 256,176 264,176 272,177 280,176 288,176 296,172"/>
<polyline stroke="#020202" points="0,177 8,168 16,165 24,170 32,180 40,184 48,185 56,184 64,184 72,184 80,184 88,184 96,184 104,184 112,175 120,179 128,181 136,179 144,183 152,184 160,185 168,184 176,184 184,182 192,180 200,184 208,184 216,184 224,184 232,180 240,176 248,178 256,184 264,184 272,185 280,184 288,184 296,182"/>
</g>
</svg>
