<svg width="40" height="40" viewBox="0 0 40 40" xmlns="http://www.w3.org/2000/svg">
<g stroke="none">
<rect fill="#5f5f5f" x="0" y="0" width="4" height="4"/>
<rect fill="#4d4d4d" x="4" y="0" width="4" height="4"/>
<rect fill="#565656" x="8" y="0" width="4" height="4"/>
<rect fill="#707070" x="12" y="0" width="4" height="4"/>
<rect fill="#7e7e7e" x="16" y="0" width="4" height="4"/>
<rect fill="#707070" x="20" y="0" width="4" height="4"/>
<rect fill="#595959" x="24" y="0" width="4" height="4"/>
<rect fill="#484848" x="28" y="0" width="4" height="4"/>
<rect fill="#535353" x="32" y="0" width="4" height="4"/>
<rect fill="#737373" x="36" y="0" width="4" height="4"/>
<rect fill="#616161" x="0" y="4" width="4" height="4"/>
<rect fill="#4f4f4f" x="4" y="4" width="4" height="4"/>
<rect fill="#515151" x="8" y="4" width="4" height="4"/>
<rect fill="#626262" x="12" y="4" width="4" height="4"/>
<rect fill="#6a6a6a" x="16" y="4" width="4" height="4"/>
<rect fill="#5e5e5e" x="20" y="4" width="4" height="4"/>
<rect fill="#4c4c4c" x="24" y="4" width="4" height="4"/>
<rect fill="#454545" x="28" y="4" width="4" height="4"/>
<rect fill="#5b5b5b" x="32" y="4" width="4" height="4"/>
<rect fill="#818181" x="36" y="4" width="4" height="4"/>
<rect fill="#727272" x="0" y="8" width="4" height="4"/>
<rect fill="#626262" x="4" y="8" width="4" height="4"/>
<rect fill="#575757" x="8" y="8" width="4" height="4"/>
<rect fill="#545454" x="12" y="8" width="4" height="4"/>
<rect fill="#545454" x="16" y="8" width="4" height="4"/>
<rect fill="#4f4f4f" x="20" y="8" width="4" height="4"/>
<rect fill="#4b4b4b" x="24" y="8" width="4" height="4"/>
<rect fill="#525252" x="28" y="8" width="4" height="4"/>
<rect fill="#6c6c6c" x="32" y="8" width="4" height="4"/>
<rect fill="#8b8b8b" x="36" y="8" width="4" height="4"/>
<rect fill="#7e7e7e" x="0" y="12" width="4" height="4"/>
<rect fill="#747474" x="4" y="12" width="4" height="4"/>
<rect fill="#5e5e5e" x="8" y="12" width="4" height="4"/>
<rect fill="#4a4a4a" x="12" y="12" width="4" height="4"/>
<rect fill="#464646" x="16" y="12" width="4" height="4"/>
<rect fill="#4e4e4e" x="20" y="12" width="4" height="4"/>
<rect fill="#5b5b5b" x="24" y="12" width="4" height="4"/>
<rect fill="#6f6f6f" x="28" y="12" width="4" height="4"/>
<rect fill="#848484" x="32" y="12" width="4" height="4"/>
<rect fill="#949494" x="36" y="12" width="4" height="4"/>
<rect fill="#767676" x="0" y="16" width="4" height="4"/>
<rect fill="#717171" x="4" y="16" width="4" height="4"/>
<rect fill="#5a5a5a" x="8" y="16" width="4" height="4"/>
<rect fill="#454545" x="12" y="16" width="4" height="4"/>
<rect fill="#454545" x="16" y="16" width="4" height="4"/>
<rect fill="#585858" x="20" y="16" width="4" height="4"/>
<rect fill="#717171" x="24" y="16" width="4" height="4"/>
<rect fill="#8d8d8d" x="28" y="16" width="4" height="4"/>
<rect fill="#9d9d9d" x="32" y="16" width="4" height="4"/>
<rect fill="#9f9f9f" x="36" y="16" width="4" height="4"/>
<rect fill="#5f5f5f" x="0" y="20" width="4" height="4"/>
<rect fill="#5d5d5d" x="4" y="20" width="4" height="4"/>
<rect fill="#4c4c4c" x="8" y="20" width="4" height="4"/>
<rect fill="#404040" x="12" y="20" width="4" height="4"/>
<rect fill="#484848" x="16" y="20" width="4" height="4"/>
<rect fill="#5f5f5f" x="20" y="20" width="4" height="4"/>
<rect fill="#7c7c7c" x="24" y="20" width="4" height="4"/>
<rect fill="#9b9b9b" x="28" y="20" width="4" height="4"/>
<rect fill="#adadad" x="32" y="20" width="4" height="4"/>
<rect fill="#afafaf" x="36" y="20" width="4" height="4"/>
<rect fill="#505050" x="0" y="24" width="4" height="4"/>
<rect fill="#505050" x="4" y="24" width="4" height="4"/>
<rect fill="#464646" x="8" y="24" width="4" height="4"/>
<rect fill="#414141" x="12" y="24" width="4" height="4"/>
<rect fill="#4c4c4c" x="16" y="24" width="4" height="4"/>
<rect fill="#616161" x="20" y="24" width="4" height="4"/>
<rect fill="#7c7c7c" x="24" y="24" width="4" height="4"/>
<rect fill="#9e9e9e" x="28" y="24" width="4" height="4"/>
<rect fill="#b8b8b8" x="32" y="24" width="4" height="4"/>
<rect fill="#c0c0c0" x="36" y="24" width="4" height="4"/>
<rect fill="#696969" x="0" y="28" width="4" height="4"/>
<rect fill="#6a6a6a" x="4" y="28" width="4" height="4"/>
<rect fill="#616161" x="8" y="28" width="4" height="4"/>
<rect fill="#565656" x="12" y="28" width="4" height="4"/>
<rect fill="#545454" x="16" y="28" width="4" height="4"/>
<rect fill="#5c5c5c" x="20" y="28" width="4" height="4"/>
<rect fill="#6d6d6d" x="24" y="28" width="4" height="4"/>
<rect fill="#8e8e8e" x="28" y="28" width="4" height="4"/>
<rect fill="#b4b4b4" x="32" y="28" width="4" height="4"/>
<rect fill="#cbcbcb" x="36" y="28" width="4" height="4"/>
<rect fill="#999999" x="0" y="32" width="4" height="4"/>
<rect fill="#9b9b9b" x="4" y="32" width="4" height="4"/>
<rect fill="#8f8f8f" x="8" y="32" width="4" height="4"/>
<rect fill="#767676" x="12" y="32" width="4" height="4"/>
<rect fill="#5e5e5e" x="16" y="32" width="4" height="4"/>
<rect fill="#535353" x="20" y="32" width="4" height="4"/>
<rect fill="#545454" x="24" y="32" width="4" height="4"/>
<rect fill="#6e6e6e" x="28" y="32" width="4" height="4"/>
<rect fill="#9b9b9b" x="32" y="32" width="4" height="4"/>
<rect fill="#c0c0c0" x="36" y="32" width="4" height="4"/>
<rect fill="#b7b7b7" x="0" y="36" width="4" height="4"/>
<rect fill="#b9b9b9" x="4" y="36" width="4" height="4"/>
<rect fill="#adadad" x="8" y="36" width="4" height="4"/>
<rect fill="#8d8d8d" x="12" y="36" width="4" height="4"/>
<rect fill="#676767" x="16" y="36" width="4" height="4"/>
<rect fill="#4e4e4e" x="20" y="36" width="4" height="4"/>
<rect fill="#424242" x="24" y="36" width="4" height="4"/>
<rect fill="#515151" x="28" y="36" width="4" height="4"/>
<rect fill="#7d7d7d" x="32" y="36" width="4" height="4"/>
<rect fill="#a6a6a6" x="36" y="36" width="4" height="4"/>
</g>
</svg>
